<svg xmlns="http://www.w3.org/2000/svg" viewBox="0 0 64 80" x="0px" y="0px"><title></title><g><path d="M38.041,36.125a.8716.8716,0,0,1-.6465-.47l-1.0435-2.07h0a4.8727,4.8727,0,0,0-8.7017,0l-1.0435,2.0713a.8729.8729,0,0,1-.6455.4688l-2.292.3525a4.8727,4.8727,0,0,0-2.688,8.2764l1.6465,1.6318a.8714.8714,0,0,1,.2461.7588L22.5,49.4326a4.8665,4.8665,0,0,0,7.0391,5.1143l2.0615-1.0605a.8744.8744,0,0,1,.7993,0l2.06,1.0605a4.8726,4.8726,0,0,0,7.04-5.1143l-.3726-2.2891a.87.87,0,0,1,.2461-.7578l1.6475-1.6328a4.8726,4.8726,0,0,0-2.6895-8.2754Zm2.1636,5.7871-1.6465,1.6318a4.88,4.88,0,0,0-1.3789,4.2432l.3726,2.2881a.872.872,0,0,1-1.2607.915L34.23,49.93a4.883,4.883,0,0,0-4.46,0L27.708,50.99a.8716.8716,0,0,1-1.26-.915l.3726-2.2871a4.8814,4.8814,0,0,0-1.3789-4.2441l-1.6455-1.6309a.8727.8727,0,0,1,.48-1.4824l2.2925-.3525a4.8812,4.8812,0,0,0,3.6084-2.6221l1.043-2.07a.873.873,0,0,1,1.5586,0l1.043,2.0693a4.88,4.88,0,0,0,3.6094,2.623l2.291.3525a.8727.8727,0,0,1,.4819,1.4814Z"/><path d="M59.0332,3.98A3.9624,3.9624,0,0,0,55.58,2H45.1875a3.9962,3.9962,0,0,0-3.5117,2.084L32,21.8232,22.3247,4.085A3.9965,3.9965,0,0,0,18.8125,2H8.42A4,4,0,0,0,4.9336,7.9609L17.6563,30.5779a19,19,0,1,0,28.6875,0L59.0664,7.9609A3.9623,3.9623,0,0,0,59.0332,3.98ZM18.8125,6,28.79,24.2927a18.8792,18.8792,0,0,0-8.1175,3.4891L8.42,6ZM32,58A15,15,0,1,1,47,43,15.0167,15.0167,0,0,1,32,58ZM43.3272,27.7817A18.8792,18.8792,0,0,0,35.21,24.2927L45.1875,6H55.58Z"/></g><text x="0" y="79" fill="#000000" font-size="5px" font-weight="bold" font-family="'Helvetica Neue', Helvetica, Arial-Unicode, Arial, Sans-serif"></text><text x="0" y="84" fill="#000000" font-size="5px" font-weight="bold" font-family="'Helvetica Neue', Helvetica, Arial-Unicode, Arial, Sans-serif"></text></svg>