<svg xmlns="http://www.w3.org/2000/svg" xmlns:xlink="http://www.w3.org/1999/xlink" xml:space="preserve" version="1.0" style="shape-rendering:geometricPrecision;text-rendering:geometricPrecision;image-rendering:optimizeQuality;" viewBox="0 0 10000 12500" x="0px" y="0px" fill-rule="evenodd" clip-rule="evenodd"><defs><style type="text/css">
   
    .fil0 {fill:black;fill-rule:nonzero}
   
  </style></defs><g><path class="fil0" d="M7961 2995l-309 82 556 2649 54 -14 -251 -1197 203 -42 249 1186 54 -15 -556 -2649zm-5857 -4l-4 102 1426 249 -43 159 916 -12c88,-79 176,-157 260,-234l1476 410 -72 -159 1366 -479 -21 -101 712 -187 641 3056 -711 188 -45 -214 -858 130 -53 -116 -209 52c64,174 43,363 -119,483 -106,78 -242,101 -369,72 -10,105 -66,199 -148,265 -100,79 -229,113 -354,90 -6,93 -52,175 -129,228 -121,83 -280,79 -413,31 -16,82 -40,139 -110,192 -222,165 -541,-17 -715,-169l-1631 -1327 -48 180 -868 13 -9 218 -733 -69 132 -3120 733 69zm1324 718c-157,590 -314,1181 -472,1771l1708 1390c85,75 334,249 455,159 57,-42 18,-131 -14,-180l-979 -899 141 -153 999 917c93,78 268,166 381,88 67,-46 39,-130 5,-189l-1063 -981 140 -153 1044 962c101,93 218,154 347,51 76,-61 91,-147 41,-230l-1016 -931 140 -153 1026 940c92,77 228,109 331,33 91,-67 80,-174 39,-266l-118 29 -1718 -1507 -571 425c-201,156 -517,210 -714,22 -195,-186 -111,-449 46,-632 171,-173 363,-349 557,-522l-735 9zm2819 203l-1533 -426 -954 876c-75,89 -162,242 -57,342 121,115 328,54 443,-36 206,-121 503,-374 710,-528l1763 1547 388 -96 -760 -1679zm1225 -680l-1126 395 925 2043 691 -105 -490 -2333zm-5702 1424l-52 1223 56 5 114 -2705 -318 -30 -115 2705 56 5 51 -1211 208 8zm321 -1353l-101 2382 698 -10 578 -2167 -1175 -205z"/></g><text x="0" y="10015" fill="#000000" font-size="5px" font-weight="bold" font-family="'Helvetica Neue', Helvetica, Arial-Unicode, Arial, Sans-serif"></text><text x="0" y="10020" fill="#000000" font-size="5px" font-weight="bold" font-family="'Helvetica Neue', Helvetica, Arial-Unicode, Arial, Sans-serif"></text></svg>